<mxfile host="65bd71144e" scale="5" border="0">
    <diagram id="ZBleZre1r7KAgKdAZK7f" name="第 1 页">
        <mxGraphModel dx="1797" dy="428" grid="1" gridSize="10" guides="1" tooltips="1" connect="1" arrows="1" fold="1" page="1" pageScale="1" pageWidth="827" pageHeight="1169" background="#ffffff" math="0" shadow="0">
            <root>
                <mxCell id="0"/>
                <mxCell id="1" parent="0"/>
                <mxCell id="693" value="" style="rounded=1;whiteSpace=wrap;html=1;fillColor=none;strokeColor=#82b366;strokeWidth=6;" vertex="1" parent="1">
                    <mxGeometry x="320" y="449.89" width="690" height="490.11" as="geometry"/>
                </mxCell>
                <mxCell id="56" value="&lt;font face=&quot;Georgia&quot;&gt;&lt;span style=&quot;font-size: 18px;&quot;&gt;&lt;b&gt;shared_pool&lt;/b&gt;&lt;/span&gt;&lt;/font&gt;" style="rounded=0;whiteSpace=wrap;html=1;strokeWidth=4;fillColor=#f5f5f5;strokeColor=#666666;fontColor=#333333;" parent="1" vertex="1">
                    <mxGeometry x="360" y="260" width="170" height="70" as="geometry"/>
                </mxCell>
                <mxCell id="356" style="edgeStyle=none;html=1;fontSize=17;strokeWidth=3;fillColor=#f5f5f5;strokeColor=#666666;dashed=1;" parent="1" edge="1">
                    <mxGeometry relative="1" as="geometry">
                        <mxPoint x="445" y="490" as="targetPoint"/>
                        <mxPoint x="444.5" y="330" as="sourcePoint"/>
                    </mxGeometry>
                </mxCell>
                <mxCell id="381" value="&lt;b style=&quot;color: rgb(63, 63, 63); font-family: Georgia; font-size: 18px;&quot;&gt;shared_pool&lt;/b&gt;" style="rounded=0;whiteSpace=wrap;html=1;strokeWidth=4;fillColor=#f5f5f5;strokeColor=#666666;fontColor=#333333;" parent="1" vertex="1">
                    <mxGeometry x="780" y="260" width="170" height="70" as="geometry"/>
                </mxCell>
                <mxCell id="414" style="edgeStyle=none;html=1;fontSize=17;strokeWidth=3;fillColor=#f5f5f5;strokeColor=#666666;dashed=1;" parent="1" edge="1">
                    <mxGeometry relative="1" as="geometry">
                        <mxPoint x="865" y="490" as="targetPoint"/>
                        <mxPoint x="864.5" y="330" as="sourcePoint"/>
                    </mxGeometry>
                </mxCell>
                <mxCell id="595" value="&lt;b&gt;&lt;font style=&quot;font-size: 18px;&quot; face=&quot;Georgia&quot;&gt;DCOH&lt;/font&gt;&lt;/b&gt;" style="rounded=0;whiteSpace=wrap;html=1;strokeWidth=4;fillColor=#d5e8d4;strokeColor=#82b366;" parent="1" vertex="1">
                    <mxGeometry x="2161" y="460" width="60" height="460" as="geometry"/>
                </mxCell>
                <mxCell id="596" value="" style="endArrow=classicThin;html=1;strokeWidth=8;fillColor=#d5e8d4;strokeColor=#82b366;endFill=1;startSize=2;endSize=0;" parent="1" edge="1">
                    <mxGeometry width="50" height="50" relative="1" as="geometry">
                        <mxPoint x="2101" y="560" as="sourcePoint"/>
                        <mxPoint x="2161" y="560.07" as="targetPoint"/>
                    </mxGeometry>
                </mxCell>
                <mxCell id="597" value="&lt;b&gt;&lt;font face=&quot;Georgia&quot;&gt;Req/RwD&lt;/font&gt;&lt;/b&gt;" style="text;html=1;align=center;verticalAlign=middle;resizable=0;points=[];autosize=1;strokeColor=none;fillColor=none;" parent="1" vertex="1">
                    <mxGeometry x="2081" y="530" width="80" height="30" as="geometry"/>
                </mxCell>
                <mxCell id="598" value="" style="endArrow=classicThin;html=1;strokeWidth=8;fillColor=#d5e8d4;strokeColor=#82b366;endFill=1;startSize=2;endSize=0;" parent="1" edge="1">
                    <mxGeometry width="50" height="50" relative="1" as="geometry">
                        <mxPoint x="2101" y="740" as="sourcePoint"/>
                        <mxPoint x="2161" y="740.19" as="targetPoint"/>
                    </mxGeometry>
                </mxCell>
                <mxCell id="599" value="&lt;b&gt;&lt;font face=&quot;Georgia&quot;&gt;UIO&lt;/font&gt;&lt;/b&gt;" style="text;html=1;align=center;verticalAlign=middle;resizable=0;points=[];autosize=1;strokeColor=none;fillColor=none;" parent="1" vertex="1">
                    <mxGeometry x="2096" y="710" width="50" height="30" as="geometry"/>
                </mxCell>
                <mxCell id="600" value="" style="endArrow=none;html=1;strokeWidth=8;fillColor=#d5e8d4;strokeColor=#82b366;endFill=0;startSize=2;endSize=0;startArrow=classicThin;startFill=1;" parent="1" edge="1">
                    <mxGeometry width="50" height="50" relative="1" as="geometry">
                        <mxPoint x="2101" y="910" as="sourcePoint"/>
                        <mxPoint x="2161" y="910" as="targetPoint"/>
                    </mxGeometry>
                </mxCell>
                <mxCell id="601" value="&lt;b style=&quot;&quot;&gt;&lt;font face=&quot;Georgia&quot;&gt;BISnp&lt;/font&gt;&lt;/b&gt;" style="text;html=1;align=center;verticalAlign=middle;resizable=0;points=[];autosize=1;strokeColor=none;fillColor=none;" parent="1" vertex="1">
                    <mxGeometry x="2096" y="880" width="60" height="30" as="geometry"/>
                </mxCell>
                <mxCell id="602" value="" style="endArrow=none;html=1;strokeWidth=8;fillColor=#d5e8d4;strokeColor=#82b366;endFill=0;startSize=2;endSize=0;startArrow=classicThin;startFill=1;" parent="1" edge="1">
                    <mxGeometry width="50" height="50" relative="1" as="geometry">
                        <mxPoint x="2101" y="470" as="sourcePoint"/>
                        <mxPoint x="2161" y="470.19000000000005" as="targetPoint"/>
                    </mxGeometry>
                </mxCell>
                <mxCell id="603" value="" style="endArrow=classicThin;html=1;strokeWidth=8;fillColor=#d5e8d4;strokeColor=#82b366;endFill=1;startSize=2;endSize=0;" parent="1" edge="1">
                    <mxGeometry width="50" height="50" relative="1" as="geometry">
                        <mxPoint x="2101" y="799.17" as="sourcePoint"/>
                        <mxPoint x="2161" y="799.36" as="targetPoint"/>
                    </mxGeometry>
                </mxCell>
                <mxCell id="604" value="&lt;font face=&quot;Georgia&quot;&gt;&lt;b&gt;BIRsp&lt;/b&gt;&lt;/font&gt;" style="text;html=1;align=center;verticalAlign=middle;resizable=0;points=[];autosize=1;strokeColor=none;fillColor=none;" parent="1" vertex="1">
                    <mxGeometry x="2096" y="770" width="60" height="30" as="geometry"/>
                </mxCell>
                <mxCell id="605" value="&lt;b style=&quot;color: rgb(63, 63, 63); font-family: Georgia;&quot;&gt;DRS/NDR&lt;/b&gt;" style="text;html=1;align=center;verticalAlign=middle;resizable=0;points=[];autosize=1;strokeColor=none;fillColor=none;" parent="1" vertex="1">
                    <mxGeometry x="2076" y="440" width="90" height="30" as="geometry"/>
                </mxCell>
                <mxCell id="607" value="" style="endArrow=classicThin;html=1;strokeWidth=8;fillColor=#d5e8d4;strokeColor=#82b366;endFill=1;startSize=2;endSize=0;" parent="1" edge="1">
                    <mxGeometry width="50" height="50" relative="1" as="geometry">
                        <mxPoint x="2222" y="570" as="sourcePoint"/>
                        <mxPoint x="2282" y="570.07" as="targetPoint"/>
                    </mxGeometry>
                </mxCell>
                <mxCell id="608" value="" style="endArrow=classicThin;html=1;strokeWidth=8;fillColor=#d5e8d4;strokeColor=#82b366;endFill=1;startSize=2;endSize=0;" parent="1" edge="1">
                    <mxGeometry width="50" height="50" relative="1" as="geometry">
                        <mxPoint x="2222" y="640" as="sourcePoint"/>
                        <mxPoint x="2282" y="640.07" as="targetPoint"/>
                    </mxGeometry>
                </mxCell>
                <mxCell id="609" value="" style="endArrow=none;html=1;strokeWidth=8;fillColor=#d5e8d4;strokeColor=#82b366;endFill=0;startSize=2;endSize=0;startArrow=classicThin;startFill=1;" parent="1" edge="1">
                    <mxGeometry width="50" height="50" relative="1" as="geometry">
                        <mxPoint x="2222" y="760" as="sourcePoint"/>
                        <mxPoint x="2282" y="760" as="targetPoint"/>
                    </mxGeometry>
                </mxCell>
                <mxCell id="611" value="" style="endArrow=none;html=1;strokeWidth=8;fillColor=#d5e8d4;strokeColor=#82b366;endFill=0;startSize=2;endSize=0;startArrow=classicThin;startFill=1;" parent="1" edge="1">
                    <mxGeometry width="50" height="50" relative="1" as="geometry">
                        <mxPoint x="2222" y="829.5" as="sourcePoint"/>
                        <mxPoint x="2282" y="829.5" as="targetPoint"/>
                    </mxGeometry>
                </mxCell>
                <mxCell id="612" value="&lt;font face=&quot;Georgia&quot;&gt;&lt;b&gt;Rd_Addr&lt;/b&gt;&lt;/font&gt;" style="text;html=1;align=center;verticalAlign=middle;resizable=0;points=[];autosize=1;strokeColor=none;fillColor=none;" parent="1" vertex="1">
                    <mxGeometry x="2211" y="540" width="80" height="30" as="geometry"/>
                </mxCell>
                <mxCell id="613" value="&lt;font face=&quot;Georgia&quot;&gt;&lt;b&gt;Rd_Data&lt;/b&gt;&lt;/font&gt;" style="text;html=1;align=center;verticalAlign=middle;resizable=0;points=[];autosize=1;strokeColor=none;fillColor=none;" parent="1" vertex="1">
                    <mxGeometry x="2211" y="730" width="80" height="30" as="geometry"/>
                </mxCell>
                <mxCell id="614" value="&lt;font face=&quot;Georgia&quot;&gt;&lt;b&gt;Wr_Data&lt;/b&gt;&lt;/font&gt;" style="text;html=1;align=center;verticalAlign=middle;resizable=0;points=[];autosize=1;strokeColor=none;fillColor=none;" parent="1" vertex="1">
                    <mxGeometry x="2211" y="610" width="80" height="30" as="geometry"/>
                </mxCell>
                <mxCell id="615" value="&lt;font face=&quot;Georgia&quot;&gt;&lt;b&gt;Wr_Rsp&lt;/b&gt;&lt;/font&gt;" style="text;html=1;align=center;verticalAlign=middle;resizable=0;points=[];autosize=1;strokeColor=none;fillColor=none;" parent="1" vertex="1">
                    <mxGeometry x="2211" y="800" width="80" height="30" as="geometry"/>
                </mxCell>
                <mxCell id="616" value="&lt;font face=&quot;Georgia&quot;&gt;&lt;span style=&quot;font-size: 18px;&quot;&gt;&lt;b&gt;Sub&lt;/b&gt;&lt;/span&gt;&lt;/font&gt;&lt;div&gt;&lt;font face=&quot;Georgia&quot;&gt;&lt;span style=&quot;font-size: 18px;&quot;&gt;&lt;b&gt;AXI&lt;/b&gt;&lt;/span&gt;&lt;/font&gt;&lt;/div&gt;" style="rounded=0;whiteSpace=wrap;html=1;strokeWidth=4;fillColor=#d5e8d4;strokeColor=#82b366;" parent="1" vertex="1">
                    <mxGeometry x="2281" y="460" width="60" height="460" as="geometry"/>
                </mxCell>
                <mxCell id="617" value="" style="endArrow=classicThin;html=1;strokeWidth=8;fillColor=#d5e8d4;strokeColor=#82b366;endFill=1;startSize=2;endSize=0;" parent="1" edge="1">
                    <mxGeometry width="50" height="50" relative="1" as="geometry">
                        <mxPoint x="2342" y="569.89" as="sourcePoint"/>
                        <mxPoint x="2402" y="569.96" as="targetPoint"/>
                    </mxGeometry>
                </mxCell>
                <mxCell id="618" value="" style="endArrow=classicThin;html=1;strokeWidth=8;fillColor=#d5e8d4;strokeColor=#82b366;endFill=1;startSize=2;endSize=0;" parent="1" edge="1">
                    <mxGeometry width="50" height="50" relative="1" as="geometry">
                        <mxPoint x="2342" y="639.89" as="sourcePoint"/>
                        <mxPoint x="2402" y="639.96" as="targetPoint"/>
                    </mxGeometry>
                </mxCell>
                <mxCell id="619" value="" style="endArrow=none;html=1;strokeWidth=8;fillColor=#d5e8d4;strokeColor=#82b366;endFill=0;startSize=2;endSize=0;startArrow=classicThin;startFill=1;" parent="1" edge="1">
                    <mxGeometry width="50" height="50" relative="1" as="geometry">
                        <mxPoint x="2342" y="759.89" as="sourcePoint"/>
                        <mxPoint x="2402" y="759.89" as="targetPoint"/>
                    </mxGeometry>
                </mxCell>
                <mxCell id="620" value="" style="endArrow=none;html=1;strokeWidth=8;fillColor=#d5e8d4;strokeColor=#82b366;endFill=0;startSize=2;endSize=0;startArrow=classicThin;startFill=1;" parent="1" edge="1">
                    <mxGeometry width="50" height="50" relative="1" as="geometry">
                        <mxPoint x="2342" y="829.39" as="sourcePoint"/>
                        <mxPoint x="2402" y="829.39" as="targetPoint"/>
                    </mxGeometry>
                </mxCell>
                <mxCell id="621" value="&lt;font face=&quot;Georgia&quot;&gt;&lt;b&gt;Rd_Addr&lt;/b&gt;&lt;/font&gt;" style="text;html=1;align=center;verticalAlign=middle;resizable=0;points=[];autosize=1;strokeColor=none;fillColor=none;" parent="1" vertex="1">
                    <mxGeometry x="2331" y="539.89" width="80" height="30" as="geometry"/>
                </mxCell>
                <mxCell id="622" value="&lt;font face=&quot;Georgia&quot;&gt;&lt;b&gt;Rd_Data&lt;/b&gt;&lt;/font&gt;" style="text;html=1;align=center;verticalAlign=middle;resizable=0;points=[];autosize=1;strokeColor=none;fillColor=none;" parent="1" vertex="1">
                    <mxGeometry x="2331" y="729.89" width="80" height="30" as="geometry"/>
                </mxCell>
                <mxCell id="623" value="&lt;font face=&quot;Georgia&quot;&gt;&lt;b&gt;Wr_Data&lt;/b&gt;&lt;/font&gt;" style="text;html=1;align=center;verticalAlign=middle;resizable=0;points=[];autosize=1;strokeColor=none;fillColor=none;" parent="1" vertex="1">
                    <mxGeometry x="2331" y="609.89" width="80" height="30" as="geometry"/>
                </mxCell>
                <mxCell id="624" value="&lt;font face=&quot;Georgia&quot;&gt;&lt;b&gt;Wr_Rsp&lt;/b&gt;&lt;/font&gt;" style="text;html=1;align=center;verticalAlign=middle;resizable=0;points=[];autosize=1;strokeColor=none;fillColor=none;" parent="1" vertex="1">
                    <mxGeometry x="2331" y="799.89" width="80" height="30" as="geometry"/>
                </mxCell>
                <mxCell id="626" style="edgeStyle=none;html=1;fillColor=#f5f5f5;strokeColor=#666666;strokeWidth=3;dashed=1;endArrow=none;endFill=0;" parent="1" source="625" edge="1">
                    <mxGeometry relative="1" as="geometry">
                        <mxPoint x="2401" y="840" as="targetPoint"/>
                    </mxGeometry>
                </mxCell>
                <mxCell id="625" value="&lt;font face=&quot;Georgia&quot;&gt;&lt;span style=&quot;font-size: 18px;&quot;&gt;&lt;b&gt;AXI&lt;/b&gt;&lt;/span&gt;&lt;/font&gt;" style="rounded=0;whiteSpace=wrap;html=1;strokeWidth=4;fillColor=#f5f5f5;strokeColor=#666666;fontColor=#333333;" parent="1" vertex="1">
                    <mxGeometry x="2311" y="330" width="179" height="70" as="geometry"/>
                </mxCell>
                <mxCell id="641" value="&lt;font face=&quot;Georgia&quot;&gt;&lt;span style=&quot;font-size: 18px;&quot;&gt;&lt;b&gt;???&lt;/b&gt;&lt;/span&gt;&lt;/font&gt;" style="rounded=0;whiteSpace=wrap;html=1;strokeWidth=4;fillColor=#f5f5f5;strokeColor=#666666;fontColor=#333333;" parent="1" vertex="1">
                    <mxGeometry x="150" y="340" width="50" height="20" as="geometry"/>
                </mxCell>
                <mxCell id="642" style="edgeStyle=none;html=1;fontSize=17;strokeWidth=3;fillColor=#f5f5f5;strokeColor=#666666;dashed=1;" parent="1" edge="1">
                    <mxGeometry relative="1" as="geometry">
                        <mxPoint x="175" y="490" as="targetPoint"/>
                        <mxPoint x="175" y="370" as="sourcePoint"/>
                    </mxGeometry>
                </mxCell>
                <mxCell id="644" value="&lt;div style=&quot;color: rgb(212, 212, 212); font-family: Consolas, 微软雅黑, monospace, Consolas, &amp;quot;Courier New&amp;quot;, monospace; font-size: 14px; line-height: 21px; white-space: pre;&quot;&gt;&lt;span&gt;&lt;b&gt;mapper_bitag&lt;/b&gt;&lt;/span&gt;&lt;/div&gt;" style="rounded=0;whiteSpace=wrap;html=1;strokeWidth=4;fillColor=#d5e8d4;strokeColor=#82b366;" parent="1" vertex="1">
                    <mxGeometry x="-110" y="800" width="105" height="144.94" as="geometry"/>
                </mxCell>
                <mxCell id="645" value="&lt;b&gt;&lt;font face=&quot;Georgia&quot;&gt;BISnp.tmp=暂存一些值&lt;/font&gt;&lt;/b&gt;" style="text;html=1;align=center;verticalAlign=middle;resizable=0;points=[];autosize=1;strokeColor=none;fillColor=none;" parent="1" vertex="1">
                    <mxGeometry x="2055.5" y="910" width="160" height="30" as="geometry"/>
                </mxCell>
                <mxCell id="648" value="" style="endArrow=none;html=1;strokeWidth=8;fillColor=#d5e8d4;strokeColor=#82b366;endFill=0;startSize=2;endSize=0;startArrow=classicThin;startFill=1;" parent="1" edge="1">
                    <mxGeometry width="50" height="50" relative="1" as="geometry">
                        <mxPoint y="910" as="sourcePoint"/>
                        <mxPoint x="45" y="910" as="targetPoint"/>
                    </mxGeometry>
                </mxCell>
                <mxCell id="649" value="&lt;b style=&quot;&quot;&gt;&lt;font face=&quot;Georgia&quot;&gt;BISnp&lt;/font&gt;&lt;/b&gt;" style="text;html=1;align=center;verticalAlign=middle;resizable=0;points=[];autosize=1;strokeColor=none;fillColor=none;" parent="1" vertex="1">
                    <mxGeometry x="-5" y="880" width="60" height="30" as="geometry"/>
                </mxCell>
                <mxCell id="650" value="&lt;font face=&quot;Georgia&quot;&gt;&lt;b&gt;BIRsp&lt;/b&gt;&lt;/font&gt;" style="text;html=1;align=center;verticalAlign=middle;resizable=0;points=[];autosize=1;strokeColor=none;fillColor=none;" parent="1" vertex="1">
                    <mxGeometry x="-5" y="820" width="60" height="30" as="geometry"/>
                </mxCell>
                <mxCell id="651" value="" style="endArrow=classicThin;html=1;strokeWidth=8;fillColor=#d5e8d4;strokeColor=#82b366;endFill=1;startSize=2;endSize=0;entryX=1.1;entryY=1.004;entryDx=0;entryDy=0;entryPerimeter=0;" parent="1" edge="1">
                    <mxGeometry width="50" height="50" relative="1" as="geometry">
                        <mxPoint x="-5" y="849.13" as="sourcePoint"/>
                        <mxPoint x="45" y="849.24" as="targetPoint"/>
                    </mxGeometry>
                </mxCell>
                <mxCell id="657" value="&lt;b style=&quot;&quot;&gt;&lt;font face=&quot;Georgia&quot;&gt;BISnp&lt;/font&gt;&lt;/b&gt;" style="text;html=1;align=center;verticalAlign=middle;resizable=0;points=[];autosize=1;strokeColor=none;fillColor=none;" parent="1" vertex="1">
                    <mxGeometry x="-165" y="880" width="60" height="30" as="geometry"/>
                </mxCell>
                <mxCell id="658" value="&lt;font face=&quot;Georgia&quot;&gt;&lt;b&gt;BIRsp&lt;/b&gt;&lt;/font&gt;" style="text;html=1;align=center;verticalAlign=middle;resizable=0;points=[];autosize=1;strokeColor=none;fillColor=none;" parent="1" vertex="1">
                    <mxGeometry x="-165" y="820" width="60" height="30" as="geometry"/>
                </mxCell>
                <mxCell id="660" value="" style="endArrow=classicThin;html=1;strokeWidth=8;fillColor=#d5e8d4;strokeColor=#82b366;endFill=1;startSize=2;endSize=0;entryX=0.855;entryY=0.994;entryDx=0;entryDy=0;entryPerimeter=0;" parent="1" target="661" edge="1">
                    <mxGeometry width="50" height="50" relative="1" as="geometry">
                        <mxPoint x="-160" y="570" as="sourcePoint"/>
                        <mxPoint x="-100" y="570.07" as="targetPoint"/>
                    </mxGeometry>
                </mxCell>
                <mxCell id="661" value="&lt;b&gt;&lt;font face=&quot;Georgia&quot;&gt;Req/RwD&lt;/font&gt;&lt;/b&gt;" style="text;html=1;align=center;verticalAlign=middle;resizable=0;points=[];autosize=1;strokeColor=none;fillColor=none;" parent="1" vertex="1">
                    <mxGeometry x="-165" y="540" width="80" height="30" as="geometry"/>
                </mxCell>
                <mxCell id="662" value="" style="endArrow=classicThin;html=1;strokeWidth=8;fillColor=#d5e8d4;strokeColor=#82b366;endFill=1;startSize=2;endSize=0;" parent="1" edge="1">
                    <mxGeometry width="50" height="50" relative="1" as="geometry">
                        <mxPoint x="-160" y="750" as="sourcePoint"/>
                        <mxPoint x="-100" y="750" as="targetPoint"/>
                    </mxGeometry>
                </mxCell>
                <mxCell id="663" value="&lt;b&gt;&lt;font face=&quot;Georgia&quot;&gt;UIO&lt;/font&gt;&lt;/b&gt;" style="text;html=1;align=center;verticalAlign=middle;resizable=0;points=[];autosize=1;strokeColor=none;fillColor=none;" parent="1" vertex="1">
                    <mxGeometry x="-165" y="720" width="50" height="30" as="geometry"/>
                </mxCell>
                <mxCell id="665" value="" style="endArrow=classicThin;html=1;strokeWidth=8;fillColor=#d5e8d4;strokeColor=#82b366;endFill=1;startSize=2;endSize=0;entryX=1.1;entryY=1.004;entryDx=0;entryDy=0;entryPerimeter=0;" parent="1" edge="1">
                    <mxGeometry width="50" height="50" relative="1" as="geometry">
                        <mxPoint x="-160" y="850" as="sourcePoint"/>
                        <mxPoint x="-110" y="850" as="targetPoint"/>
                    </mxGeometry>
                </mxCell>
                <mxCell id="666" value="" style="endArrow=classicThin;html=1;strokeWidth=8;fillColor=#d5e8d4;strokeColor=#82b366;endFill=1;startSize=2;endSize=0;" parent="1" edge="1">
                    <mxGeometry width="50" height="50" relative="1" as="geometry">
                        <mxPoint x="-110" y="910" as="sourcePoint"/>
                        <mxPoint x="-160" y="910" as="targetPoint"/>
                    </mxGeometry>
                </mxCell>
                <mxCell id="667" value="" style="endArrow=classicThin;html=1;strokeWidth=8;fillColor=#d5e8d4;strokeColor=#82b366;endFill=1;startSize=2;endSize=0;exitX=0.929;exitY=1;exitDx=0;exitDy=0;exitPerimeter=0;" parent="1" source="668" edge="1">
                    <mxGeometry width="50" height="50" relative="1" as="geometry">
                        <mxPoint x="-110" y="630" as="sourcePoint"/>
                        <mxPoint x="-160" y="630" as="targetPoint"/>
                    </mxGeometry>
                </mxCell>
                <mxCell id="668" value="&lt;font face=&quot;Georgia&quot;&gt;&lt;b&gt;UIORSP&lt;/b&gt;&lt;/font&gt;" style="text;html=1;align=center;verticalAlign=middle;resizable=0;points=[];autosize=1;strokeColor=none;fillColor=none;" parent="1" vertex="1">
                    <mxGeometry x="-165" y="600" width="70" height="30" as="geometry"/>
                </mxCell>
                <mxCell id="671" value="" style="endArrow=classicThin;html=1;strokeWidth=8;fillColor=#d5e8d4;strokeColor=#82b366;endFill=1;startSize=2;endSize=0;exitX=0.776;exitY=1.01;exitDx=0;exitDy=0;exitPerimeter=0;" parent="1" source="673" edge="1">
                    <mxGeometry width="50" height="50" relative="1" as="geometry">
                        <mxPoint x="-110" y="460" as="sourcePoint"/>
                        <mxPoint x="-160" y="460" as="targetPoint"/>
                    </mxGeometry>
                </mxCell>
                <mxCell id="673" value="&lt;font face=&quot;Georgia&quot;&gt;&lt;b&gt;DRS/NDR&lt;/b&gt;&lt;/font&gt;" style="text;html=1;align=center;verticalAlign=middle;resizable=0;points=[];autosize=1;strokeColor=none;fillColor=none;" parent="1" vertex="1">
                    <mxGeometry x="-170" y="430" width="90" height="30" as="geometry"/>
                </mxCell>
                <mxCell id="674" style="edgeStyle=none;html=1;fillColor=#f5f5f5;strokeColor=#666666;strokeWidth=3;dashed=1;endArrow=none;endFill=0;" parent="1" source="675" edge="1">
                    <mxGeometry relative="1" as="geometry">
                        <mxPoint x="-160" y="920" as="targetPoint"/>
                    </mxGeometry>
                </mxCell>
                <mxCell id="675" value="&lt;font face=&quot;Georgia&quot;&gt;&lt;span style=&quot;font-size: 18px;&quot;&gt;&lt;b&gt;UIO，CXL&lt;/b&gt;&lt;/span&gt;&lt;/font&gt;" style="rounded=0;whiteSpace=wrap;html=1;strokeWidth=4;fillColor=#f5f5f5;strokeColor=#666666;fontColor=#333333;" parent="1" vertex="1">
                    <mxGeometry x="-240" y="330" width="160" height="70" as="geometry"/>
                </mxCell>
                <mxCell id="677" value="&lt;font face=&quot;Georgia&quot;&gt;&lt;span style=&quot;font-size: 18px;&quot;&gt;&lt;b&gt;cpp/include/&lt;br&gt;device_model/&lt;/b&gt;&lt;/span&gt;&lt;/font&gt;&lt;div&gt;&lt;font face=&quot;Georgia&quot;&gt;&lt;span style=&quot;font-size: 18px;&quot;&gt;&lt;b&gt;device_m2s_s2m/&lt;/b&gt;&lt;/span&gt;&lt;/font&gt;&lt;/div&gt;&lt;div&gt;&lt;font face=&quot;Georgia&quot;&gt;&lt;span style=&quot;font-size: 18px;&quot;&gt;&lt;b&gt;decoder/&lt;/b&gt;&lt;/span&gt;&lt;/font&gt;&lt;/div&gt;&lt;div&gt;&lt;font face=&quot;Georgia&quot;&gt;&lt;span style=&quot;font-size: 18px;&quot;&gt;&lt;b&gt;gfam/&lt;/b&gt;&lt;/span&gt;&lt;/font&gt;&lt;/div&gt;&lt;div&gt;&lt;font face=&quot;Georgia&quot;&gt;&lt;span style=&quot;font-size: 18px;&quot;&gt;&lt;b&gt;device_gfam_&lt;/b&gt;&lt;/span&gt;&lt;/font&gt;&lt;/div&gt;&lt;div&gt;&lt;font face=&quot;Georgia&quot;&gt;&lt;span style=&quot;font-size: 18px;&quot;&gt;&lt;b&gt;decoders.h&lt;/b&gt;&lt;/span&gt;&lt;/font&gt;&lt;/div&gt;" style="rounded=0;whiteSpace=wrap;html=1;strokeWidth=4;fillColor=#f8cecc;strokeColor=#b85450;" vertex="1" parent="1">
                    <mxGeometry x="360" y="490" width="160" height="410" as="geometry"/>
                </mxCell>
                <mxCell id="678" value="&lt;font face=&quot;Georgia&quot;&gt;&lt;span style=&quot;font-size: 18px;&quot;&gt;&lt;b&gt;cpp/include/&lt;br&gt;device_model/&lt;/b&gt;&lt;/span&gt;&lt;/font&gt;&lt;div&gt;&lt;font face=&quot;Georgia&quot;&gt;&lt;span style=&quot;font-size: 18px;&quot;&gt;&lt;b&gt;device_m2s_s2m/&lt;/b&gt;&lt;/span&gt;&lt;/font&gt;&lt;/div&gt;&lt;div&gt;&lt;font face=&quot;Georgia&quot;&gt;&lt;span style=&quot;font-size: 18px;&quot;&gt;&lt;b&gt;decoder/&lt;/b&gt;&lt;/span&gt;&lt;/font&gt;&lt;/div&gt;&lt;div&gt;&lt;font face=&quot;Georgia&quot;&gt;&lt;span style=&quot;font-size: 18px;&quot;&gt;&lt;b&gt;ldfam/&lt;/b&gt;&lt;/span&gt;&lt;/font&gt;&lt;/div&gt;&lt;div&gt;&lt;font face=&quot;Georgia&quot;&gt;&lt;span style=&quot;font-size: 18px;&quot;&gt;&lt;b&gt;device_ldfam_&lt;/b&gt;&lt;/span&gt;&lt;/font&gt;&lt;/div&gt;&lt;div&gt;&lt;font face=&quot;Georgia&quot;&gt;&lt;span style=&quot;font-size: 18px;&quot;&gt;&lt;b&gt;decoders.h&lt;/b&gt;&lt;/span&gt;&lt;/font&gt;&lt;/div&gt;" style="rounded=0;whiteSpace=wrap;html=1;strokeWidth=4;fillColor=#ffe6cc;strokeColor=#d79b00;" vertex="1" parent="1">
                    <mxGeometry x="780" y="490" width="170" height="410" as="geometry"/>
                </mxCell>
                <mxCell id="685" value="&lt;font face=&quot;Georgia&quot;&gt;&lt;span style=&quot;font-size: 18px;&quot;&gt;&lt;b&gt;shared_pool&lt;/b&gt;&lt;/span&gt;&lt;/font&gt;" style="rounded=0;whiteSpace=wrap;html=1;strokeWidth=4;fillColor=#f5f5f5;strokeColor=#666666;fontColor=#333333;" vertex="1" parent="1">
                    <mxGeometry x="1220" y="260" width="170" height="70" as="geometry"/>
                </mxCell>
                <mxCell id="686" style="edgeStyle=none;html=1;fontSize=17;strokeWidth=3;fillColor=#f5f5f5;strokeColor=#666666;dashed=1;" edge="1" parent="1">
                    <mxGeometry relative="1" as="geometry">
                        <mxPoint x="1305" y="490" as="targetPoint"/>
                        <mxPoint x="1304.5" y="330" as="sourcePoint"/>
                    </mxGeometry>
                </mxCell>
                <mxCell id="687" value="&lt;b style=&quot;color: rgb(63, 63, 63); font-family: Georgia; font-size: 18px;&quot;&gt;shared_pool&lt;/b&gt;" style="rounded=0;whiteSpace=wrap;html=1;strokeWidth=4;fillColor=#f5f5f5;strokeColor=#666666;fontColor=#333333;" vertex="1" parent="1">
                    <mxGeometry x="1640" y="260" width="170" height="70" as="geometry"/>
                </mxCell>
                <mxCell id="688" style="edgeStyle=none;html=1;fontSize=17;strokeWidth=3;fillColor=#f5f5f5;strokeColor=#666666;dashed=1;" edge="1" parent="1">
                    <mxGeometry relative="1" as="geometry">
                        <mxPoint x="1725" y="490" as="targetPoint"/>
                        <mxPoint x="1724.5" y="330" as="sourcePoint"/>
                    </mxGeometry>
                </mxCell>
                <mxCell id="689" value="&lt;font face=&quot;Georgia&quot;&gt;&lt;span style=&quot;font-size: 18px;&quot;&gt;&lt;b&gt;cpp/include/&lt;br&gt;device_model/&lt;/b&gt;&lt;/span&gt;&lt;/font&gt;&lt;div&gt;&lt;font face=&quot;Georgia&quot;&gt;&lt;span style=&quot;font-size: 18px;&quot;&gt;&lt;b&gt;device_m2s_s2m/&lt;/b&gt;&lt;/span&gt;&lt;/font&gt;&lt;/div&gt;&lt;div&gt;&lt;font face=&quot;Georgia&quot;&gt;&lt;span style=&quot;font-size: 18px;&quot;&gt;&lt;b&gt;dcd/&lt;/b&gt;&lt;/span&gt;&lt;/font&gt;&lt;/div&gt;&lt;div&gt;&lt;font face=&quot;Georgia&quot;&gt;&lt;span style=&quot;font-size: 18px;&quot;&gt;&lt;b&gt;gfam/&lt;/b&gt;&lt;/span&gt;&lt;/font&gt;&lt;/div&gt;&lt;div&gt;&lt;font face=&quot;Georgia&quot;&gt;&lt;span style=&quot;font-size: 18px;&quot;&gt;&lt;b&gt;device_gfam_&lt;/b&gt;&lt;/span&gt;&lt;/font&gt;&lt;/div&gt;&lt;div&gt;&lt;font face=&quot;Georgia&quot;&gt;&lt;span style=&quot;font-size: 18px;&quot;&gt;&lt;b&gt;dcd.h&lt;/b&gt;&lt;/span&gt;&lt;/font&gt;&lt;/div&gt;" style="rounded=0;whiteSpace=wrap;html=1;strokeWidth=4;fillColor=#f8cecc;strokeColor=#b85450;" vertex="1" parent="1">
                    <mxGeometry x="1220" y="490" width="160" height="410" as="geometry"/>
                </mxCell>
                <mxCell id="690" value="&lt;font face=&quot;Georgia&quot;&gt;&lt;span style=&quot;font-size: 18px;&quot;&gt;&lt;b&gt;cpp/include/&lt;br&gt;device_model/&lt;/b&gt;&lt;/span&gt;&lt;/font&gt;&lt;div&gt;&lt;font face=&quot;Georgia&quot;&gt;&lt;span style=&quot;font-size: 18px;&quot;&gt;&lt;b&gt;device_m2s_s2m/&lt;/b&gt;&lt;/span&gt;&lt;/font&gt;&lt;/div&gt;&lt;div&gt;&lt;font face=&quot;Georgia&quot;&gt;&lt;span style=&quot;font-size: 18px;&quot;&gt;&lt;b&gt;dcd/&lt;/b&gt;&lt;/span&gt;&lt;/font&gt;&lt;/div&gt;&lt;div&gt;&lt;font face=&quot;Georgia&quot;&gt;&lt;span style=&quot;font-size: 18px;&quot;&gt;&lt;b&gt;ldfam/&lt;/b&gt;&lt;/span&gt;&lt;/font&gt;&lt;/div&gt;&lt;div&gt;&lt;font face=&quot;Georgia&quot;&gt;&lt;span style=&quot;font-size: 18px;&quot;&gt;&lt;b&gt;device_ldfam_&lt;/b&gt;&lt;/span&gt;&lt;/font&gt;&lt;/div&gt;&lt;div&gt;&lt;font face=&quot;Georgia&quot;&gt;&lt;span style=&quot;font-size: 18px;&quot;&gt;&lt;b&gt;dcd.h&lt;/b&gt;&lt;/span&gt;&lt;/font&gt;&lt;/div&gt;" style="rounded=0;whiteSpace=wrap;html=1;strokeWidth=4;fillColor=#ffe6cc;strokeColor=#d79b00;" vertex="1" parent="1">
                    <mxGeometry x="1640" y="490" width="170" height="410" as="geometry"/>
                </mxCell>
                <mxCell id="691" value="&lt;font face=&quot;Georgia&quot;&gt;&lt;span style=&quot;font-size: 18px;&quot;&gt;&lt;b&gt;cpp/include/&lt;br&gt;device_model/&lt;/b&gt;&lt;/span&gt;&lt;/font&gt;&lt;div&gt;&lt;font face=&quot;Georgia&quot;&gt;&lt;span style=&quot;font-size: 18px;&quot;&gt;&lt;b&gt;device_m2s_s2m/&lt;/b&gt;&lt;/span&gt;&lt;/font&gt;&lt;/div&gt;&lt;div&gt;&lt;span style=&quot;background-color: transparent; font-size: 18px;&quot;&gt;&lt;font face=&quot;Georgia&quot;&gt;&lt;b&gt;device_m2s_&lt;/b&gt;&lt;/font&gt;&lt;/span&gt;&lt;/div&gt;&lt;div&gt;&lt;span style=&quot;background-color: transparent; font-size: 18px;&quot;&gt;&lt;font face=&quot;Georgia&quot;&gt;&lt;b&gt;s2m_pid&lt;/b&gt;&lt;/font&gt;&lt;/span&gt;&lt;b style=&quot;font-size: 18px; font-family: Georgia; background-color: transparent;&quot;&gt;.h&lt;/b&gt;&lt;/div&gt;" style="rounded=0;whiteSpace=wrap;html=1;strokeWidth=4;fillColor=#f8cecc;strokeColor=#b85450;" vertex="1" parent="1">
                    <mxGeometry x="95" y="490" width="160" height="410" as="geometry"/>
                </mxCell>
                <mxCell id="694" value="" style="rounded=1;whiteSpace=wrap;html=1;fillColor=none;strokeColor=#82b366;strokeWidth=6;" vertex="1" parent="1">
                    <mxGeometry x="1170" y="444.95" width="690" height="490.11" as="geometry"/>
                </mxCell>
                <mxCell id="695" value="" style="rounded=1;whiteSpace=wrap;html=1;fillColor=none;strokeColor=#82b366;strokeWidth=6;" vertex="1" parent="1">
                    <mxGeometry x="750" y="980" width="690" height="490.11" as="geometry"/>
                </mxCell>
                <mxCell id="696" value="&lt;font face=&quot;Georgia&quot;&gt;&lt;span style=&quot;font-size: 18px;&quot;&gt;&lt;b&gt;cpp/include/&lt;br&gt;device_model/&lt;/b&gt;&lt;/span&gt;&lt;/font&gt;&lt;div&gt;&lt;font face=&quot;Georgia&quot;&gt;&lt;span style=&quot;font-size: 18px;&quot;&gt;&lt;b&gt;device_m2s_s2m/&lt;/b&gt;&lt;/span&gt;&lt;/font&gt;&lt;/div&gt;&lt;div&gt;&lt;font face=&quot;Georgia&quot;&gt;&lt;span style=&quot;font-size: 18px;&quot;&gt;&lt;b&gt;base/&lt;/b&gt;&lt;/span&gt;&lt;/font&gt;&lt;/div&gt;&lt;div&gt;&lt;font face=&quot;Georgia&quot;&gt;&lt;span style=&quot;font-size: 18px;&quot;&gt;&lt;b&gt;gfam/&lt;/b&gt;&lt;/span&gt;&lt;/font&gt;&lt;/div&gt;&lt;div&gt;&lt;font face=&quot;Georgia&quot;&gt;&lt;span style=&quot;font-size: 18px;&quot;&gt;&lt;b&gt;device_gfam_&lt;/b&gt;&lt;/span&gt;&lt;/font&gt;&lt;/div&gt;&lt;div&gt;&lt;font face=&quot;Georgia&quot;&gt;&lt;span style=&quot;font-size: 18px;&quot;&gt;&lt;b&gt;base.h&lt;/b&gt;&lt;/span&gt;&lt;/font&gt;&lt;/div&gt;" style="rounded=0;whiteSpace=wrap;html=1;strokeWidth=4;fillColor=#f8cecc;strokeColor=#b85450;" vertex="1" parent="1">
                    <mxGeometry x="790" y="1020.1100000000001" width="160" height="410" as="geometry"/>
                </mxCell>
                <mxCell id="697" value="&lt;font face=&quot;Georgia&quot;&gt;&lt;span style=&quot;font-size: 18px;&quot;&gt;&lt;b&gt;cpp/include/&lt;br&gt;device_model/&lt;/b&gt;&lt;/span&gt;&lt;/font&gt;&lt;div&gt;&lt;font face=&quot;Georgia&quot;&gt;&lt;span style=&quot;font-size: 18px;&quot;&gt;&lt;b&gt;device_m2s_s2m/&lt;/b&gt;&lt;/span&gt;&lt;/font&gt;&lt;/div&gt;&lt;div&gt;&lt;font face=&quot;Georgia&quot;&gt;&lt;span style=&quot;font-size: 18px;&quot;&gt;&lt;b&gt;decoder/&lt;/b&gt;&lt;/span&gt;&lt;/font&gt;&lt;/div&gt;&lt;div&gt;&lt;font face=&quot;Georgia&quot;&gt;&lt;span style=&quot;font-size: 18px;&quot;&gt;&lt;b&gt;ldfam/&lt;/b&gt;&lt;/span&gt;&lt;/font&gt;&lt;/div&gt;&lt;div&gt;&lt;font face=&quot;Georgia&quot;&gt;&lt;span style=&quot;font-size: 18px;&quot;&gt;&lt;b&gt;device_ldfam_&lt;/b&gt;&lt;/span&gt;&lt;/font&gt;&lt;/div&gt;&lt;div&gt;&lt;font face=&quot;Georgia&quot;&gt;&lt;span style=&quot;font-size: 18px;&quot;&gt;&lt;b&gt;base.h&lt;/b&gt;&lt;/span&gt;&lt;/font&gt;&lt;/div&gt;" style="rounded=0;whiteSpace=wrap;html=1;strokeWidth=4;fillColor=#ffe6cc;strokeColor=#d79b00;" vertex="1" parent="1">
                    <mxGeometry x="1210" y="1020.1100000000001" width="170" height="410" as="geometry"/>
                </mxCell>
                <mxCell id="698" value="&lt;div style=&quot;&quot;&gt;&lt;span style=&quot;background-color: transparent; font-size: 18px; text-wrap-mode: wrap;&quot;&gt;&lt;font face=&quot;Georgia&quot;&gt;&lt;b&gt;device_m2s_s2m_base.h&lt;/b&gt;&lt;/font&gt;&lt;/span&gt;&lt;font style=&quot;text-wrap-mode: wrap;&quot; face=&quot;Georgia&quot;&gt;&lt;span style=&quot;font-size: 18px;&quot;&gt;&lt;b&gt;&lt;br&gt;&lt;/b&gt;&lt;/span&gt;&lt;/font&gt;&lt;/div&gt;" style="text;html=1;align=center;verticalAlign=middle;resizable=0;points=[];autosize=1;strokeColor=#82b366;fillColor=#d5e8d4;" vertex="1" parent="1">
                    <mxGeometry x="1460" y="1380" width="260" height="40" as="geometry"/>
                </mxCell>
                <mxCell id="699" value="&lt;div style=&quot;&quot;&gt;&lt;span style=&quot;background-color: transparent; font-size: 18px; text-wrap-mode: wrap;&quot;&gt;&lt;font face=&quot;Georgia&quot;&gt;&lt;b&gt;device_m2s_s2m_base.h&lt;/b&gt;&lt;/font&gt;&lt;/span&gt;&lt;font style=&quot;text-wrap-mode: wrap;&quot; face=&quot;Georgia&quot;&gt;&lt;span style=&quot;font-size: 18px;&quot;&gt;&lt;b&gt;&lt;br&gt;&lt;/b&gt;&lt;/span&gt;&lt;/font&gt;&lt;/div&gt;" style="text;html=1;align=center;verticalAlign=middle;resizable=0;points=[];autosize=1;strokeColor=#82b366;fillColor=#d5e8d4;" vertex="1" parent="1">
                    <mxGeometry x="1670" y="920" width="260" height="40" as="geometry"/>
                </mxCell>
                <mxCell id="700" value="&lt;div style=&quot;&quot;&gt;&lt;span style=&quot;background-color: transparent; font-size: 18px; text-wrap-mode: wrap;&quot;&gt;&lt;font face=&quot;Georgia&quot;&gt;&lt;b&gt;device_m2s_s2m_base.h&lt;/b&gt;&lt;/font&gt;&lt;/span&gt;&lt;font style=&quot;text-wrap-mode: wrap;&quot; face=&quot;Georgia&quot;&gt;&lt;span style=&quot;font-size: 18px;&quot;&gt;&lt;b&gt;&lt;br&gt;&lt;/b&gt;&lt;/span&gt;&lt;/font&gt;&lt;/div&gt;" style="text;html=1;align=center;verticalAlign=middle;resizable=0;points=[];autosize=1;strokeColor=#82b366;fillColor=#d5e8d4;" vertex="1" parent="1">
                    <mxGeometry x="890" y="905" width="260" height="40" as="geometry"/>
                </mxCell>
            </root>
        </mxGraphModel>
    </diagram>
</mxfile>